<svg width="38" height="38" viewBox="0 0 38 38" fill="none" xmlns="http://www.w3.org/2000/svg">
<path d="M7.3626 31.1917C6.75565 31.1917 6.24767 30.9871 5.83864 30.5781C5.42961 30.1691 5.2251 29.6611 5.2251 29.0542V13.5375C5.2251 12.9305 5.42961 12.4226 5.83864 12.0135C6.24767 11.6045 6.75565 11.4 7.3626 11.4H14.8438V9.42083C14.8438 8.81388 15.0484 8.3059 15.4574 7.89687C15.8664 7.48784 16.3744 7.28333 16.9813 7.28333H21.0188C21.6258 7.28333 22.1338 7.48784 22.5428 7.89687C22.9518 8.3059 23.1563 8.81388 23.1563 9.42083V11.4H30.6376C31.2445 11.4 31.7525 11.6045 32.1616 12.0135C32.5706 12.4226 32.7751 12.9305 32.7751 13.5375V29.0542C32.7751 29.6611 32.5706 30.1691 32.1616 30.5781C31.7525 30.9871 31.2445 31.1917 30.6376 31.1917H7.3626ZM15.7147 11.4H22.2855V9.42083C22.2855 9.10416 22.1536 8.81388 21.8897 8.54999C21.6258 8.2861 21.3355 8.15416 21.0188 8.15416H16.9813C16.6647 8.15416 16.3744 8.2861 16.1105 8.54999C15.8466 8.81388 15.7147 9.10416 15.7147 9.42083V11.4ZM7.3626 30.3208H30.6376C30.9543 30.3208 31.2445 30.1889 31.5084 29.925C31.7723 29.6611 31.9043 29.3708 31.9043 29.0542V13.5375C31.9043 13.2208 31.7723 12.9305 31.5084 12.6667C31.2445 12.4028 30.9543 12.2708 30.6376 12.2708H7.3626C7.04593 12.2708 6.75565 12.4028 6.49176 12.6667C6.22788 12.9305 6.09593 13.2208 6.09593 13.5375V29.0542C6.09593 29.3708 6.22788 29.6611 6.49176 29.925C6.75565 30.1889 7.04593 30.3208 7.3626 30.3208V30.3208ZM6.09593 30.3208V12.2708V30.3208Z" fill="black"/>
</svg>
