<svg width="195" height="116" viewBox="0 0 195 116" fill="none" xmlns="http://www.w3.org/2000/svg">
<path d="M58 49H180" stroke="#DFDEDE" stroke-width="2"/>
<path d="M177 66C186.941 66 195 57.9411 195 48C195 38.0589 186.941 30 177 30C167.059 30 159 38.0589 159 48C159 57.9411 167.059 66 177 66Z" fill="#0B4856"/>
<path d="M178.95 47.4895C179.71 47.6795 180.28 48.0396 180.68 48.5796C181.09 49.1096 181.29 49.7696 181.29 50.5596C181.29 51.6596 180.89 52.5294 180.09 53.1694C179.28 53.8194 178.2 54.1494 176.83 54.1494C176.05 54.1494 175.3 54.0296 174.58 53.7896C173.86 53.5496 173.25 53.2095 172.74 52.7795C172.47 52.5395 172.33 52.2594 172.33 51.9294C172.33 51.6694 172.4 51.4495 172.54 51.2695C172.7 51.0695 172.88 50.9795 173.08 50.9795C173.2 50.9795 173.31 50.9996 173.41 51.0496C173.5 51.0896 173.64 51.1495 173.8 51.2495C174.31 51.5795 174.79 51.8395 175.24 52.0195C175.7 52.1995 176.2 52.2896 176.74 52.2896C177.53 52.2896 178.12 52.1396 178.5 51.8196C178.89 51.4996 179.08 51.0094 179.08 50.3694C179.08 49.7294 178.87 49.2595 178.47 48.9595C178.07 48.6495 177.45 48.4895 176.61 48.4895H175.59C175.31 48.4895 175.09 48.3995 174.94 48.2195C174.79 48.0295 174.72 47.8196 174.72 47.5796C174.72 47.3196 174.79 47.1094 174.94 46.9294C175.09 46.7494 175.31 46.6594 175.59 46.6594H176.31C177.95 46.6594 178.77 46.0396 178.77 44.7996C178.77 44.2296 178.6 43.7795 178.25 43.4695C177.9 43.1595 177.42 42.9995 176.81 42.9995C175.93 42.9995 175 43.3496 174 44.0496C173.83 44.1396 173.7 44.2195 173.61 44.2595C173.51 44.2995 173.4 44.3196 173.28 44.3196C173.08 44.3196 172.9 44.2296 172.74 44.0496C172.6 43.8596 172.53 43.6294 172.53 43.3594C172.53 43.1794 172.56 43.0294 172.62 42.9094C172.69 42.7794 172.8 42.6495 172.94 42.5195C173.44 42.0995 174.04 41.7695 174.74 41.5295C175.45 41.2795 176.17 41.1494 176.9 41.1494C178.15 41.1494 179.14 41.4596 179.87 42.0696C180.61 42.6796 180.99 43.4995 180.99 44.5195C180.97 45.2095 180.79 45.8194 180.43 46.3494C180.08 46.8694 179.59 47.2495 178.95 47.4895Z" fill="white"/>
<g filter="url(#filter0_d_58_1965)">
<path d="M58 66C67.9411 66 76 57.9411 76 48C76 38.0589 67.9411 30 58 30C48.0589 30 40 38.0589 40 48C40 57.9411 48.0589 66 58 66Z" fill="#0B4856"/>
</g>
<g filter="url(#filter1_d_58_1965)">
<path d="M61.6299 52.1296C62.3499 52.1296 62.7097 52.4398 62.7097 53.0498C62.7097 53.6798 62.3499 53.9998 61.6299 53.9998H55.5398C54.8098 53.9998 54.4397 53.6798 54.4397 53.0498C54.4397 52.4398 54.8098 52.1296 55.5398 52.1296H57.4099V43.9197L55.6897 44.9797C55.5197 45.0797 55.3697 45.1296 55.2397 45.1296C54.9797 45.1296 54.7698 45.0198 54.5898 44.7998C54.4198 44.5898 54.3398 44.3498 54.3398 44.0798C54.3398 43.7398 54.4898 43.4698 54.7998 43.2698L57.5898 41.5498C57.9498 41.3298 58.2999 41.2197 58.6199 41.2197C58.9599 41.2197 59.2299 41.3198 59.4299 41.5298C59.6299 41.7298 59.7397 42.0096 59.7397 42.3696V52.1296H61.6299Z" fill="white"/>
</g>
<path d="M118 66C127.941 66 136 57.9411 136 48C136 38.0589 127.941 30 118 30C108.059 30 100 38.0589 100 48C100 57.9411 108.059 66 118 66Z" fill="#0B4856"/>
<path d="M121.56 52.1294C122.28 52.1294 122.64 52.4396 122.64 53.0496C122.64 53.6796 122.28 53.9995 121.56 53.9995H114.72C114.41 53.9995 114.17 53.9095 113.99 53.7295C113.81 53.5395 113.72 53.3095 113.72 53.0295C113.72 52.6695 113.85 52.3496 114.13 52.0596L118.23 47.6494C118.74 47.0994 119.1 46.5894 119.33 46.1394C119.57 45.6694 119.69 45.2095 119.69 44.7495C119.69 44.1895 119.53 43.7495 119.21 43.4495C118.88 43.1495 118.42 42.9995 117.82 42.9995C117.33 42.9995 116.85 43.0996 116.38 43.2896C115.92 43.4696 115.46 43.7196 114.99 44.0496C114.87 44.1296 114.75 44.1995 114.63 44.2595C114.51 44.3095 114.39 44.3396 114.27 44.3396C114.07 44.3396 113.89 44.2396 113.73 44.0496C113.59 43.8596 113.52 43.6294 113.52 43.3594C113.52 43.1794 113.55 43.0294 113.61 42.8994C113.68 42.7594 113.79 42.6395 113.93 42.5195C114.46 42.0995 115.08 41.7695 115.79 41.5295C116.49 41.2795 117.2 41.1494 117.91 41.1494C119.15 41.1494 120.13 41.4596 120.86 42.0896C121.61 42.7096 121.98 43.5494 121.98 44.6094C121.98 45.3394 121.82 46.0294 121.51 46.6794C121.2 47.3094 120.67 48.0296 119.93 48.8196L116.81 52.1294H121.56Z" fill="white"/>
<defs>
<filter id="filter0_d_58_1965" x="0" y="0" width="116" height="116" filterUnits="userSpaceOnUse" color-interpolation-filters="sRGB">
<feFlood flood-opacity="0" result="BackgroundImageFix"/>
<feColorMatrix in="SourceAlpha" type="matrix" values="0 0 0 0 0 0 0 0 0 0 0 0 0 0 0 0 0 0 127 0" result="hardAlpha"/>
<feOffset dy="10"/>
<feGaussianBlur stdDeviation="20"/>
<feColorMatrix type="matrix" values="0 0 0 0 0.970833 0 0 0 0 0.631689 0 0 0 0 0.44092 0 0 0 0.2 0"/>
<feBlend mode="normal" in2="BackgroundImageFix" result="effect1_dropShadow_58_1965"/>
<feBlend mode="normal" in="SourceGraphic" in2="effect1_dropShadow_58_1965" result="shape"/>
</filter>
<filter id="filter1_d_58_1965" x="52.3398" y="39.2197" width="12.3699" height="16.7803" filterUnits="userSpaceOnUse" color-interpolation-filters="sRGB">
<feFlood flood-opacity="0" result="BackgroundImageFix"/>
<feColorMatrix in="SourceAlpha" type="matrix" values="0 0 0 0 0 0 0 0 0 0 0 0 0 0 0 0 0 0 127 0" result="hardAlpha"/>
<feOffset/>
<feGaussianBlur stdDeviation="1"/>
<feColorMatrix type="matrix" values="0 0 0 0 0 0 0 0 0 0 0 0 0 0 0 0 0 0 0.25 0"/>
<feBlend mode="normal" in2="BackgroundImageFix" result="effect1_dropShadow_58_1965"/>
<feBlend mode="normal" in="SourceGraphic" in2="effect1_dropShadow_58_1965" result="shape"/>
</filter>
</defs>
</svg>
