<svg width="47" height="39" viewBox="0 0 47 39" fill="none" xmlns="http://www.w3.org/2000/svg">
<path d="M10.2237 33.6375C9.56107 33.6375 8.9694 33.4141 8.44873 32.9672C7.92806 32.5203 7.66772 32.0125 7.66772 31.4438V17.3875C7.66772 16.7917 7.92806 16.2771 8.44873 15.8438C8.9694 15.4104 9.56107 15.1938 10.2237 15.1938H13.4898V11.7406C13.4898 10.0885 14.1524 8.69376 15.4778 7.55626C16.8031 6.41876 18.4283 5.85001 20.3532 5.85001C22.2781 5.85001 23.9032 6.41876 25.2285 7.55626C26.5539 8.69376 27.2165 10.0885 27.2165 11.7406V15.1938H30.4826C31.1768 15.1938 31.7764 15.4104 32.2813 15.8438C32.7861 16.2771 33.0386 16.7917 33.0386 17.3875V31.4438C33.0386 32.0125 32.7861 32.5203 32.2813 32.9672C31.7764 33.4141 31.1768 33.6375 30.4826 33.6375H10.2237ZM14.5311 15.1938H26.1752V11.7406C26.1752 10.3594 25.6072 9.18126 24.4712 8.20626C23.3352 7.23126 21.9625 6.74376 20.3532 6.74376C18.7438 6.74376 17.3711 7.23126 16.2351 8.20626C15.0991 9.18126 14.5311 10.3594 14.5311 11.7406V15.1938ZM10.2237 32.7438H30.4826C30.9244 32.7438 31.2872 32.6219 31.5712 32.3781C31.8553 32.1344 31.9973 31.8229 31.9973 31.4438V17.3875C31.9973 17.0083 31.8553 16.6969 31.5712 16.4531C31.2872 16.2094 30.9244 16.0875 30.4826 16.0875H10.2237C9.78196 16.0875 9.41907 16.2094 9.13507 16.4531C8.85107 16.6969 8.70907 17.0083 8.70907 17.3875V31.4438C8.70907 31.8229 8.85107 32.1344 9.13507 32.3781C9.41907 32.6219 9.78196 32.7438 10.2237 32.7438ZM20.3532 26.5688C21.0474 26.5688 21.6391 26.3589 22.1282 25.9391C22.6173 25.5193 22.8618 25.0115 22.8618 24.4156C22.8618 23.8469 22.6173 23.3458 22.1282 22.9125C21.6391 22.4792 21.0474 22.2625 20.3532 22.2625C19.6589 22.2625 19.0673 22.4792 18.5781 22.9125C18.089 23.3458 17.8445 23.8469 17.8445 24.4156C17.8445 25.0115 18.089 25.5193 18.5781 25.9391C19.0673 26.3589 19.6589 26.5688 20.3532 26.5688Z" fill="black"/>
</svg>
