<svg width="39" height="33" viewBox="0 0 39 33" fill="none" xmlns="http://www.w3.org/2000/svg">
<path d="M7.5563 25.7125C6.93338 25.7125 6.41203 25.5349 5.99224 25.1797C5.57244 24.8245 5.36255 24.3833 5.36255 23.8562V9.14373C5.36255 8.61664 5.57244 8.1755 5.99224 7.82029C6.41203 7.46508 6.93338 7.28748 7.5563 7.28748H31.4438C32.0667 7.28748 32.5881 7.46508 33.0079 7.82029C33.4277 8.1755 33.6376 8.61664 33.6376 9.14373V23.8562C33.6376 24.3833 33.4277 24.8245 33.0079 25.1797C32.5881 25.5349 32.0667 25.7125 31.4438 25.7125H7.5563ZM19.5 16.0531L6.2563 8.52498V23.8562C6.2563 24.1771 6.37817 24.4406 6.62192 24.6468C6.86567 24.8531 7.17713 24.9562 7.5563 24.9562H31.4438C31.823 24.9562 32.1344 24.8531 32.3782 24.6468C32.6219 24.4406 32.7438 24.1771 32.7438 23.8562V8.52498L19.5 16.0531ZM19.5 15.0906L32.0532 8.04373H6.98755L19.5 15.0906ZM6.2563 8.52498V8.04373V23.8562C6.2563 24.1771 6.37817 24.4406 6.62192 24.6468C6.86567 24.8531 7.17713 24.9562 7.5563 24.9562H6.2563V23.8562V8.52498Z" fill="black"/>
</svg>
