<svg width="85" height="85" viewBox="0 0 85 85" fill="none" xmlns="http://www.w3.org/2000/svg">
<path d="M25.5 28.3333V36.8333L31.1667 39.6667" stroke="black" stroke-width="2" stroke-miterlimit="10" stroke-linecap="round" stroke-linejoin="round"/>
<path d="M65.1667 45.3333V34C65.1667 32.436 66.436 31.1667 68 31.1667H76.0948L75.1372 28.934C74.2447 26.8515 72.1962 25.5 69.9295 25.5H51V65.1667H59.6417C59.4037 63.9937 59.449 62.7215 59.8882 61.4097C60.6305 59.1883 62.5373 57.4317 64.8125 56.882C69.4932 55.7487 73.6667 59.262 73.6667 63.75C73.6667 64.2345 73.6157 64.7077 73.525 65.1667H82.1667V45.3333H65.1667Z" fill="black"/>
<path d="M66.5833 70.8333C70.4953 70.8333 73.6667 67.662 73.6667 63.75C73.6667 59.838 70.4953 56.6667 66.5833 56.6667C62.6713 56.6667 59.5 59.838 59.5 63.75C59.5 67.662 62.6713 70.8333 66.5833 70.8333Z" stroke="black" stroke-width="2" stroke-miterlimit="10"/>
<path d="M21.25 70.8333C25.162 70.8333 28.3333 67.662 28.3333 63.75C28.3333 59.838 25.162 56.6667 21.25 56.6667C17.3379 56.6667 14.1666 59.838 14.1666 63.75C14.1666 67.662 17.3379 70.8333 21.25 70.8333Z" stroke="black" stroke-width="2" stroke-miterlimit="10"/>
<path d="M79.3334 62.3333H82.1667" stroke="black" stroke-width="2" stroke-miterlimit="10" stroke-linecap="round"/>
<path d="M2.83337 62.3333H8.50004" stroke="black" stroke-width="2" stroke-miterlimit="10" stroke-linecap="round"/>
<path d="M45.3334 14.1667H8.50004C5.36921 14.1667 2.83337 16.7025 2.83337 19.8334V65.1667H14.3084C14.0704 63.9937 14.1157 62.7215 14.5549 61.4097C15.2972 59.1883 17.204 57.4317 19.482 56.882C24.1599 55.7487 28.3334 59.262 28.3334 63.75C28.3334 64.2345 28.2824 64.7077 28.1917 65.1667H51V19.8334C51 16.7025 48.4642 14.1667 45.3334 14.1667ZM25.5 51C17.6772 51 11.3334 44.6562 11.3334 36.8334C11.3334 29.0105 17.6772 22.6667 25.5 22.6667C33.3229 22.6667 39.6667 29.0105 39.6667 36.8334C39.6667 44.6562 33.3229 51 25.5 51Z" fill="black"/>
</svg>
