<svg width="12" height="14" viewBox="0 0 12 14" fill="none" xmlns="http://www.w3.org/2000/svg">
<path d="M11.1429 7H10.2857V1.75C10.2857 1.26629 9.90241 0.874996 9.42857 0.874996C8.95473 0.874996 8.57143 1.26629 8.57143 1.75V7H7.03018L3.28554 1.26328C3.075 0.944176 2.68393 0.800621 2.32286 0.912731C1.96125 1.02457 1.71429 1.36472 1.71429 1.75V7H0.857143C0.383304 7 0 7.39101 0 7.875C0 8.35898 0.383304 8.75 0.857143 8.75H1.71429V12.25C1.71429 12.7337 2.09759 13.125 2.57143 13.125C3.04527 13.125 3.42857 12.7337 3.42857 12.25V8.75H6.1125L8.71527 12.7367C8.87679 12.9828 9.14732 13.125 9.42857 13.125C9.51145 13.125 9.59515 13.113 9.67717 13.0874C10.0393 12.9746 10.2857 12.6355 10.2857 12.25V8.75H11.1429C11.6167 8.75 12 8.35871 12 7.875C12 7.39128 11.617 7 11.1429 7ZM3.42857 7V4.64023L4.96875 7H3.42857ZM8.57143 9.35976L8.17232 8.75H8.57143V9.35976Z" fill="#8D8B8B"/>
</svg>
