<svg width="1178" height="116" viewBox="0 0 1178 116" fill="none" xmlns="http://www.w3.org/2000/svg">
<path d="M800 66C809.941 66 818 57.9411 818 48C818 38.0589 809.941 30 800 30C790.059 30 782 38.0589 782 48C782 57.9411 790.059 66 800 66Z" fill="#DFDEDE"/>
<path d="M802.95 47.4835C803.71 47.6755 804.28 48.0415 804.68 48.5815C805.09 49.1095 805.29 49.7695 805.29 50.5615C805.29 51.6535 804.89 52.5234 804.09 53.1714C803.28 53.8194 802.2 54.1435 800.83 54.1435C800.05 54.1435 799.3 54.0234 798.58 53.7834C797.86 53.5434 797.25 53.2075 796.74 52.7755C796.47 52.5355 796.33 52.2534 796.33 51.9294C796.33 51.6654 796.4 51.4435 796.54 51.2635C796.7 51.0715 796.88 50.9755 797.08 50.9755C797.2 50.9755 797.31 50.9995 797.41 51.0475C797.5 51.0835 797.64 51.1495 797.8 51.2455C798.31 51.5815 798.79 51.8395 799.24 52.0195C799.7 52.1995 800.2 52.2895 800.74 52.2895C801.53 52.2895 802.12 52.1335 802.5 51.8215C802.89 51.4975 803.08 51.0115 803.08 50.3635C803.08 49.7275 802.87 49.2595 802.47 48.9595C802.07 48.6475 801.45 48.4915 800.61 48.4915H799.59C799.31 48.4915 799.09 48.4015 798.94 48.2215C798.79 48.0295 798.72 47.8135 798.72 47.5735C798.72 47.3215 798.79 47.1055 798.94 46.9255C799.09 46.7455 799.31 46.6555 799.59 46.6555H800.31C801.95 46.6555 802.77 46.0375 802.77 44.8015C802.77 44.2255 802.6 43.7815 802.25 43.4695C801.9 43.1575 801.42 43.0015 800.81 43.0015C799.93 43.0015 799 43.3495 798 44.0455C797.83 44.1415 797.7 44.2135 797.61 44.2615C797.51 44.2975 797.4 44.3155 797.28 44.3155C797.08 44.3155 796.9 44.2255 796.74 44.0455C796.6 43.8535 796.53 43.6255 796.53 43.3615C796.53 43.1815 796.56 43.0314 796.62 42.9114C796.69 42.7794 796.8 42.6474 796.94 42.5154C797.44 42.0954 798.04 41.7655 798.74 41.5255C799.45 41.2735 800.17 41.1475 800.9 41.1475C802.15 41.1475 803.14 41.4535 803.87 42.0655C804.61 42.6775 804.99 43.4935 804.99 44.5135C804.97 45.2095 804.79 45.8215 804.43 46.3495C804.08 46.8655 803.59 47.2435 802.95 47.4835Z" fill="white"/>
<path d="M1160 66C1169.94 66 1178 57.9411 1178 48C1178 38.0589 1169.94 30 1160 30C1150.06 30 1142 38.0589 1142 48C1142 57.9411 1150.06 66 1160 66Z" fill="#DFDEDE"/>
<g filter="url(#filter0_d_51_449)">
<path d="M58 66C67.9411 66 76 57.9411 76 48C76 38.0589 67.9411 30 58 30C48.0589 30 40 38.0589 40 48C40 57.9411 48.0589 66 58 66Z" fill="#0B4856"/>
</g>
<g filter="url(#filter1_d_51_449)">
<path d="M61.6299 52.908C62.3499 52.908 62.7097 53.214 62.7097 53.826C62.7097 54.462 62.3499 54.78 61.6299 54.78H55.5398C54.8098 54.78 54.4397 54.462 54.4397 53.826C54.4397 53.214 54.8098 52.908 55.5398 52.908H57.4099V44.7L55.6897 45.762C55.5197 45.858 55.3697 45.906 55.2397 45.906C54.9797 45.906 54.7698 45.798 54.5898 45.582C54.4198 45.366 54.3398 45.126 54.3398 44.862C54.3398 44.514 54.4898 44.244 54.7998 44.052L57.5898 42.324C57.9498 42.108 58.2999 42 58.6199 42C58.9599 42 59.2299 42.102 59.4299 42.306C59.6299 42.51 59.7397 42.792 59.7397 43.152V52.908H61.6299Z" fill="white"/>
</g>
<path d="M426 66C435.941 66 444 57.9411 444 48C444 38.0589 435.941 30 426 30C416.059 30 408 38.0589 408 48C408 57.9411 416.059 66 426 66Z" fill="#DFDEDE"/>
<path d="M429.56 52.1274C430.28 52.1274 430.64 52.4335 430.64 53.0455C430.64 53.6815 430.28 53.9995 429.56 53.9995H422.72C422.41 53.9995 422.17 53.9095 421.99 53.7295C421.81 53.5375 421.72 53.3035 421.72 53.0275C421.72 52.6675 421.85 52.3435 422.13 52.0555L426.23 47.6454C426.74 47.0934 427.1 46.5895 427.33 46.1335C427.57 45.6655 427.69 45.2035 427.69 44.7475C427.69 44.1835 427.53 43.7515 427.21 43.4515C426.88 43.1515 426.42 43.0015 425.82 43.0015C425.33 43.0015 424.85 43.0975 424.38 43.2895C423.92 43.4695 423.46 43.7215 422.99 44.0455C422.87 44.1295 422.75 44.2015 422.63 44.2615C422.51 44.3095 422.39 44.3335 422.27 44.3335C422.07 44.3335 421.89 44.2375 421.73 44.0455C421.59 43.8535 421.52 43.6255 421.52 43.3615C421.52 43.1815 421.55 43.0255 421.61 42.8935C421.68 42.7615 421.79 42.6354 421.93 42.5154C422.46 42.0954 423.08 41.7655 423.79 41.5255C424.49 41.2735 425.2 41.1475 425.91 41.1475C427.15 41.1475 428.13 41.4595 428.86 42.0835C429.61 42.7075 429.98 43.5475 429.98 44.6035C429.98 45.3355 429.82 46.0255 429.51 46.6735C429.2 47.3095 428.67 48.0235 427.93 48.8155L424.81 52.1274H429.56Z" fill="white"/>
<defs>
<filter id="filter0_d_51_449" x="0" y="0" width="116" height="116" filterUnits="userSpaceOnUse" color-interpolation-filters="sRGB">
<feFlood flood-opacity="0" result="BackgroundImageFix"/>
<feColorMatrix in="SourceAlpha" type="matrix" values="0 0 0 0 0 0 0 0 0 0 0 0 0 0 0 0 0 0 127 0" result="hardAlpha"/>
<feOffset dy="10"/>
<feGaussianBlur stdDeviation="20"/>
<feColorMatrix type="matrix" values="0 0 0 0 0.709804 0 0 0 0 0.494118 0 0 0 0 0.0627451 0 0 0 0.2 0"/>
<feBlend mode="normal" in2="BackgroundImageFix" result="effect1_dropShadow_51_449"/>
<feBlend mode="normal" in="SourceGraphic" in2="effect1_dropShadow_51_449" result="shape"/>
</filter>
<filter id="filter1_d_51_449" x="52.3398" y="40" width="12.3699" height="16.78" filterUnits="userSpaceOnUse" color-interpolation-filters="sRGB">
<feFlood flood-opacity="0" result="BackgroundImageFix"/>
<feColorMatrix in="SourceAlpha" type="matrix" values="0 0 0 0 0 0 0 0 0 0 0 0 0 0 0 0 0 0 127 0" result="hardAlpha"/>
<feOffset/>
<feGaussianBlur stdDeviation="1"/>
<feColorMatrix type="matrix" values="0 0 0 0 0 0 0 0 0 0 0 0 0 0 0 0 0 0 0.25 0"/>
<feBlend mode="normal" in2="BackgroundImageFix" result="effect1_dropShadow_51_449"/>
<feBlend mode="normal" in="SourceGraphic" in2="effect1_dropShadow_51_449" result="shape"/>
</filter>
</defs>
</svg>
