<svg width="25" height="26" viewBox="0 0 25 26" fill="none" xmlns="http://www.w3.org/2000/svg">
<path d="M23.1845 25.7687C20.6116 25.7687 17.9574 25.051 15.222 23.6156C12.4866 22.1802 9.99489 20.3453 7.74697 18.1109C5.49906 15.8765 3.65739 13.3984 2.22197 10.6765C0.786556 7.95467 0.0688477 5.30728 0.0688477 2.73436C0.0688477 2.24686 0.238118 1.83384 0.57666 1.4953C0.915202 1.15676 1.32822 0.987488 1.81572 0.987488H4.78135C5.26885 0.987488 5.68187 1.12967 6.02041 1.41405C6.35895 1.69842 6.58239 2.08436 6.69072 2.57186L7.4626 5.74061C7.54385 6.17395 7.53031 6.56665 7.42197 6.91874C7.31364 7.27082 7.12406 7.5552 6.85322 7.77186L3.4001 10.9406C5.0251 13.6489 6.79906 15.951 8.72197 17.8469C10.6449 19.7427 12.9199 21.4083 15.547 22.8437L18.9188 19.3094C19.1897 19.0114 19.4808 18.8083 19.7923 18.7C20.1037 18.5917 20.4491 18.5781 20.8282 18.6594L23.347 19.2281C23.8345 19.3094 24.2204 19.526 24.5048 19.8781C24.7892 20.2302 24.9313 20.6635 24.9313 21.1781V24.0219C24.9313 24.5094 24.7621 24.9224 24.4235 25.2609C24.085 25.5995 23.672 25.7687 23.1845 25.7687ZM2.9126 10.1687L6.36572 7.04061C6.47406 6.93228 6.54854 6.78332 6.58916 6.59374C6.62979 6.40415 6.63656 6.22811 6.60947 6.06561L5.79697 2.53124C5.76989 2.31457 5.68187 2.15207 5.53291 2.04374C5.38395 1.9354 5.20114 1.88124 4.98447 1.88124H1.53135C1.36885 1.88124 1.23343 1.9354 1.1251 2.04374C1.01676 2.15207 0.962598 2.28749 0.962598 2.44999C0.908431 3.53332 1.06416 4.73176 1.42979 6.0453C1.79541 7.35884 2.28968 8.73332 2.9126 10.1687ZM23.4688 24.9156C23.6313 24.9156 23.7668 24.8614 23.8751 24.7531C23.9834 24.6448 24.0376 24.5094 24.0376 24.3469V20.9344C24.0376 20.7177 23.9834 20.5349 23.8751 20.3859C23.7668 20.237 23.6043 20.1489 23.3876 20.1219L20.5032 19.5125C20.3407 19.4854 20.1985 19.4922 20.0767 19.5328C19.9548 19.5734 19.8261 19.6479 19.6907 19.7562L16.4001 23.2094C17.5105 23.8052 18.7428 24.2385 20.097 24.5094C21.4511 24.7802 22.5751 24.9156 23.4688 24.9156Z" fill="black"/>
</svg>
