<svg width="80" height="80" viewBox="0 0 80 80" fill="none" xmlns="http://www.w3.org/2000/svg">
<path d="M48.538 56.6332C48.538 56.6332 55.0454 52.9078 56.749 52.0126C58.4477 51.1142 60.2076 50.8876 61.2763 51.5401C62.8947 52.5301 76.4848 61.5703 77.6291 62.3707C78.7734 63.1727 79.3246 65.4628 77.7512 67.7064C76.1842 69.95 68.9553 78.8215 65.892 78.7267C62.824 78.627 50.068 78.3474 26.0138 54.2867C1.96436 30.2341 1.6799 17.4749 1.58186 14.4068C1.48382 11.3404 10.3553 4.10983 12.5989 2.54125C14.8457 0.974273 17.1391 1.5641 17.9362 2.6666C18.8427 3.92179 27.7784 17.4685 28.762 19.021C29.4354 20.0817 29.1879 21.8512 28.2895 23.5515C27.3959 25.2551 23.6706 31.7625 23.6706 31.7625C23.6706 31.7625 26.2966 36.2416 35.1778 45.1211C44.0605 54.0022 48.538 56.6332 48.538 56.6332Z" stroke="#0B4856" stroke-width="2" stroke-miterlimit="10"/>
</svg>
