<svg width="102" height="64" viewBox="0 0 102 64" fill="none" xmlns="http://www.w3.org/2000/svg">
<path d="M101.559 33.3354C101.559 33.3174 101.559 33.2993 101.559 33.2813C101.55 32.7003 101.302 32.146 100.868 31.7388C100.434 31.3316 99.8496 31.1042 99.2413 31.1062H98.6324L89.2145 13.7293C89.0185 13.3687 88.7222 13.0668 88.3582 12.8567C87.9942 12.6466 87.5766 12.5364 87.1513 12.5384H71.0819L71.6946 7.89614C71.7949 7.00849 71.6968 6.1106 71.4068 5.26185C71.1168 4.4131 70.6415 3.63283 70.0123 2.97263C69.3831 2.31242 68.6143 1.78731 67.7568 1.43204C66.8994 1.07677 65.9727 0.899428 65.0381 0.911732H15.163C14.5537 0.914843 13.9671 1.13346 13.5167 1.52538C13.0662 1.91731 12.7836 2.45475 12.7236 3.03397L12.2204 6.85785H40.6403C41.0756 6.8557 41.5069 6.93742 41.9085 7.09814C42.31 7.25885 42.6735 7.49524 42.9772 7.79319C43.2809 8.09115 43.5186 8.44453 43.676 8.83223C43.8335 9.21993 43.9075 9.63398 43.8936 10.0496C43.866 10.9021 43.4932 11.7111 42.8538 12.3064C42.2144 12.9016 41.3582 13.2368 40.4654 13.2414H30.9871V13.2546H3.15846C2.52773 13.2577 1.92279 13.4942 1.47072 13.9143C1.01866 14.3345 0.754652 14.9057 0.734156 15.5078C0.723994 15.802 0.776084 16.0951 0.887306 16.3695C0.998528 16.644 1.16659 16.8942 1.38144 17.1051C1.59628 17.3161 1.85349 17.4834 2.13765 17.5972C2.42181 17.7109 2.72708 17.7687 3.03517 17.7671H39.8842C40.7218 17.8887 41.4838 18.2994 42.0258 18.9214C42.5679 19.5435 42.8524 20.3338 42.8255 21.1427C42.7955 22.0516 42.3993 22.9144 41.7196 23.5511C41.0398 24.1879 40.1291 24.5494 39.1771 24.5604H13.7779C13.1394 24.5636 12.5272 24.8034 12.0702 25.2293C11.6133 25.6553 11.3473 26.2341 11.3284 26.8437C11.3179 27.1409 11.3703 27.437 11.4825 27.7144C11.5947 27.9917 11.7644 28.2446 11.9814 28.4578C12.1984 28.671 12.4582 28.8402 12.7453 28.9552C13.0323 29.0702 13.3408 29.1286 13.6521 29.127H38.7582C39.6039 29.2383 40.3768 29.6441 40.9285 30.2664C41.4802 30.8888 41.7718 31.6838 41.7474 32.499C41.7174 33.4122 41.3179 34.2788 40.6327 34.9164C39.9476 35.5541 39.0303 35.913 38.0738 35.9179H9.27522H6.85469C6.21622 35.9211 5.60398 36.1609 5.14703 36.5868C4.69008 37.0128 4.42412 37.5916 4.40522 38.2012C4.39471 38.4983 4.44713 38.7945 4.55934 39.0718C4.67154 39.3492 4.84122 39.6021 5.05821 39.8153C5.27519 40.0285 5.53501 40.1977 5.82208 40.3127C6.10916 40.4276 6.41759 40.4861 6.72888 40.4844H8.81728L8.00079 48.6489C7.90064 49.5365 7.99886 50.4342 8.28894 51.2828C8.57903 52.1315 9.05438 52.9116 9.68357 53.5716C10.3128 54.2317 11.0815 54.7567 11.9388 55.1119C12.7962 55.4671 13.7228 55.6444 14.6573 55.6321H16.4601C16.8831 57.9455 18.1496 60.0412 20.0352 61.5481C21.9209 63.0549 24.304 63.8758 26.7624 63.8651C29.2631 63.8485 31.6848 63.0267 33.636 61.5328C35.5872 60.0388 36.9539 57.9599 37.5152 55.6321H59.9982C61.7929 55.6169 63.5243 54.9968 64.8871 53.8812C66.1407 55.0219 67.8108 55.6501 69.542 55.6321H69.9119C70.3349 57.9455 71.6014 60.0412 73.487 61.5481C75.3727 63.0549 77.7558 63.8758 80.2142 63.8651C82.7149 63.8485 85.1365 63.0267 87.0878 61.5328C89.039 60.0388 90.4057 57.9599 90.967 55.6321H92.4477C94.3564 55.597 96.186 54.8978 97.5932 53.6656C99.0003 52.4334 99.8884 50.753 100.091 48.9398L101.545 33.5577C101.545 33.5373 101.545 33.5168 101.545 33.4952C101.545 33.4736 101.551 33.4327 101.552 33.4003C101.554 33.3678 101.559 33.3534 101.559 33.3354ZM26.887 59.3022C26.1098 59.3055 25.34 59.1592 24.6233 58.872C23.9066 58.5849 23.2578 58.1629 22.7156 57.631C22.1734 57.0992 21.7489 56.4685 21.4674 55.7766C21.1859 55.0846 21.0532 54.3456 21.0772 53.6036C21.1286 52.0821 21.7948 50.6387 22.9362 49.5762C24.0775 48.5138 25.6053 47.9148 27.199 47.9051C27.9761 47.9018 28.746 48.0481 29.4627 48.3352C30.1794 48.6223 30.8282 49.0444 31.3704 49.5762C31.9126 50.1081 32.3371 50.7387 32.6186 51.4307C32.9001 52.1226 33.0328 52.8616 33.0088 53.6036C32.9574 55.1252 32.2912 56.5686 31.1498 57.631C30.0084 58.6935 28.4807 59.2924 26.887 59.3022ZM80.3413 59.3022C79.5641 59.3055 78.7943 59.1592 78.0776 58.872C77.3609 58.5849 76.7121 58.1629 76.1699 57.631C75.6277 57.0992 75.2032 56.4685 74.9217 55.7766C74.6402 55.0846 74.5075 54.3456 74.5315 53.6036C74.5829 52.0821 75.2491 50.6387 76.3905 49.5762C77.5319 48.5138 79.0596 47.9148 80.6533 47.9051C81.4305 47.9018 82.2003 48.0481 82.917 48.3352C83.6337 48.6223 84.2825 49.0444 84.8247 49.5762C85.3669 50.1081 85.7914 50.7387 86.0729 51.4307C86.3544 52.1226 86.4871 52.8616 86.4631 53.6036C86.4117 55.1252 85.7455 56.5686 84.6041 57.631C83.4628 58.6935 81.935 59.2924 80.3413 59.3022ZM95.3413 48.6441C95.2613 49.2983 94.9378 49.9032 94.4296 50.3484C93.9215 50.7936 93.2627 51.0494 92.5736 51.0692H90.9733C90.4451 48.8679 89.1483 46.9039 87.2962 45.5002C85.4442 44.0965 83.1471 43.3367 80.7829 43.3457C78.3763 43.3617 76.0401 44.1233 74.1254 45.516C72.2106 46.9087 70.8208 48.8574 70.1647 51.0692H69.6728C69.3879 51.0754 69.1049 51.0241 68.8422 50.9187C68.5794 50.8133 68.3429 50.6561 68.148 50.4575C67.9572 50.2518 67.8138 50.01 67.7271 49.7479C67.6405 49.4858 67.6124 49.2093 67.6448 48.9361L70.6541 17.0905H77.5647L76.4702 28.6871C76.3699 29.5748 76.4679 30.4727 76.7579 31.3214C77.0479 32.1702 77.5233 32.9504 78.1525 33.6106C78.7817 34.2709 79.5504 34.7959 80.4079 35.1512C81.2654 35.5065 82.1921 35.6838 83.1267 35.6715H96.5667L95.3413 48.6441Z" fill="#0B4856"/>
</svg>
