<svg width="229" height="137" viewBox="0 0 229 137" fill="none" xmlns="http://www.w3.org/2000/svg">
<path d="M175.328 135.451C172.396 132.972 170.615 129.056 171.082 125.243C171.549 121.431 174.442 117.926 178.194 117.117C181.946 116.307 186.223 118.548 187.363 122.216C187.99 115.145 188.713 107.777 192.47 101.756C195.872 96.3032 201.764 92.4017 208.149 91.7038C214.535 91.0058 221.258 93.6419 225.241 98.6854C229.223 103.729 230.198 111.061 227.409 116.851C225.354 121.117 221.569 124.291 217.603 126.874C204.786 135.149 189.414 138.514 174.315 136.35L175.328 135.451Z" fill="#F2F2F2"/>
<path d="M218.926 93.7881C213.657 98.0825 208.823 102.886 204.495 108.128C197.721 116.304 192.239 125.47 188.241 135.308C187.948 136.026 189.112 136.338 189.402 135.628C195.944 119.64 206.388 105.547 219.778 94.6403C220.379 94.1503 219.522 93.3021 218.926 93.7881Z" fill="white"/>
<path d="M73.7188 134.777C77.7457 131.372 80.1916 125.994 79.5502 120.757C78.9087 115.521 74.9357 110.707 69.7822 109.596C64.6287 108.484 58.754 111.562 57.1888 116.599C56.3273 106.887 55.3346 96.7679 50.1744 88.4971C45.502 81.0081 37.4092 75.6494 28.6385 74.6907C19.8677 73.732 10.6333 77.3528 5.16331 84.28C-0.306675 91.2072 -1.64598 101.278 2.18506 109.231C5.00724 115.089 10.2067 119.45 15.6545 122.997C33.0346 134.313 54.5948 139.033 75.1095 136.012" fill="#F2F2F2"/>
<path d="M13.8365 77.5535C21.0734 83.452 27.7125 90.0489 33.6578 97.249C39.6041 104.442 44.8391 112.194 49.2893 120.399C51.7768 125.001 54.0114 129.735 55.9831 134.581C56.3851 135.567 54.7854 135.996 54.3879 135.021C50.8956 126.478 46.5749 118.298 41.4878 110.598C36.4255 102.926 30.6313 95.7633 24.1868 89.2109C20.5418 85.5066 16.6959 82.0057 12.6667 78.724C11.8409 78.0511 13.0174 76.8861 13.8365 77.5535L13.8365 77.5535Z" fill="white"/>
<path d="M164.38 136.7H68.3052V38.0601C68.3052 17.0736 85.3676 0 106.34 0H126.345C147.317 0 164.38 17.0736 164.38 38.0601V136.7Z" fill="#F2F2F2"/>
<path d="M144.375 136.7H68.3051V38.0601C68.2841 30.0185 70.8288 22.1803 75.5688 15.6865C75.7435 15.4481 75.9178 15.2129 76.0975 14.9803C78.3902 11.9713 81.1186 9.32135 84.1926 7.11788C84.3662 6.99145 84.5405 6.86722 84.7175 6.74299C87.2897 4.96178 90.0722 3.50568 93.0015 2.40783C93.1755 2.34185 93.3526 2.27574 93.5297 2.21234C96.179 1.26626 98.9254 0.618195 101.718 0.28012C101.891 0.256454 102.069 0.237935 102.247 0.219416C104.968 -0.0717552 107.713 -0.0717552 110.434 0.219416C110.611 0.237935 110.789 0.256451 110.964 0.280373C113.756 0.61847 116.502 1.26645 119.151 2.21235C119.328 2.27576 119.505 2.34186 119.679 2.40796C122.572 3.49197 125.322 4.92634 127.867 6.67907C128.044 6.80061 128.221 6.92485 128.395 7.04908C130.118 8.27984 131.737 9.65098 133.234 11.1485C134.435 12.3497 135.554 13.6301 136.583 14.9811C136.762 15.2129 136.937 15.4482 137.111 15.6861C141.851 22.18 144.396 30.0184 144.375 38.0601V136.7Z" fill="#2092A5"/>
<path d="M138.19 92.5821C140.515 92.5821 142.401 90.6953 142.401 88.3678C142.401 86.0404 140.515 84.1536 138.19 84.1536C135.864 84.1536 133.978 86.0404 133.978 88.3678C133.978 90.6953 135.864 92.5821 138.19 92.5821Z" fill="white"/>
<path d="M156.509 133.746H153.282L151.747 121.29L156.51 121.291L156.509 133.746Z" fill="#FFB8B8"/>
<path d="M150.977 132.823H157.201V136.744H147.059C147.059 136.229 147.16 135.719 147.357 135.243C147.554 134.768 147.843 134.335 148.206 133.971C148.57 133.607 149.002 133.318 149.478 133.121C149.953 132.924 150.463 132.823 150.977 132.823Z" fill="#2F2E41"/>
<path d="M172.566 133.746H169.339L167.803 121.29L172.566 121.291L172.566 133.746Z" fill="#FFB8B8"/>
<path d="M167.034 132.823H173.257V136.744H163.115C163.115 136.229 163.216 135.719 163.413 135.243C163.61 134.768 163.899 134.335 164.263 133.971C164.627 133.607 165.059 133.318 165.534 133.121C166.009 132.924 166.519 132.823 167.034 132.823Z" fill="#2F2E41"/>
<path d="M140.321 89.2027C140.089 88.8604 139.935 88.4714 139.869 88.0629C139.803 87.6545 139.828 87.2367 139.941 86.8388C140.054 86.441 140.253 86.0728 140.524 85.7602C140.795 85.4477 141.131 85.1983 141.508 85.0297L152.478 54.7748L157.876 57.7226L145.351 86.6352C145.592 87.2886 145.585 88.0077 145.332 88.6563C145.078 89.305 144.596 89.838 143.976 90.1545C143.356 90.4709 142.641 90.5488 141.968 90.3734C141.294 90.198 140.708 89.7814 140.321 89.2027Z" fill="#FFB8B8"/>
<path d="M170.917 94.8877C170.559 94.6819 170.249 94.4 170.012 94.0617C169.774 93.7235 169.613 93.3371 169.54 92.9299C169.467 92.5227 169.485 92.1044 169.591 91.7047C169.698 91.305 169.89 90.9335 170.156 90.6163L166.757 58.6118L172.9 58.8926L174.313 90.3733C174.816 90.8548 175.124 91.5041 175.181 92.1983C175.237 92.8924 175.037 93.5832 174.619 94.1396C174.2 94.6961 173.592 95.0796 172.91 95.2174C172.228 95.3553 171.519 95.238 170.917 94.8877Z" fill="#FFB8B8"/>
<path d="M161.117 49.1709C164.688 49.1709 167.582 46.2745 167.582 42.7017C167.582 39.1289 164.688 36.2325 161.117 36.2325C157.547 36.2325 154.653 39.1289 154.653 42.7017C154.653 46.2745 157.547 49.1709 161.117 49.1709Z" fill="#FFB8B8"/>
<path d="M170.876 87.6089H151.385L151.409 87.4571C151.444 87.2303 154.883 64.6898 152.346 57.3157C152.092 56.591 152.114 55.7977 152.409 55.0886C152.704 54.3794 153.251 53.8045 153.944 53.4745H153.944C157.569 51.7663 164.527 49.6629 170.401 54.7675C171.265 55.5311 171.94 56.4853 172.372 57.5548C172.804 58.6244 172.981 59.7798 172.89 60.9298L170.876 87.6089Z" fill="white"/>
<path d="M155.129 68.021L146.354 66.2396L150.467 56.4863C150.713 55.5416 151.324 54.7332 152.165 54.2384C153.006 53.7435 154.009 53.6027 154.953 53.8467C155.898 54.0907 156.707 54.6997 157.204 55.5401C157.7 56.3804 157.844 57.3835 157.602 58.3294L155.129 68.021Z" fill="white"/>
<path d="M166.367 71.3285L165.84 59.2279C165.44 56.9532 166.741 54.8029 168.742 54.4514C170.744 54.1012 172.699 55.6788 173.101 57.9702L175.084 69.277L166.367 71.3285Z" fill="white"/>
<path d="M170.228 86.1602C173.364 98.1121 173.706 113.308 172.86 129.883L168.648 129.356L161.015 97.7494L156.803 129.883L152.066 129.62C150.65 112.228 149.272 97.2977 151.539 87.4772L170.228 86.1602Z" fill="#2F2E41"/>
<path d="M165.377 47.7012C164.171 48.9868 161.931 48.2967 161.774 46.5404C161.762 46.4041 161.763 46.2668 161.777 46.1307C161.858 45.3527 162.307 44.6464 162.2 43.825C162.175 43.6206 162.099 43.4258 161.978 43.259C161.017 41.9712 158.761 43.835 157.854 42.6692C157.298 41.9544 157.952 40.8289 157.525 40.0299C156.962 38.9754 155.293 39.4956 154.247 38.9181C153.083 38.2755 153.152 36.4882 153.919 35.4011C154.853 34.0753 156.492 33.3678 158.11 33.2659C159.728 33.1639 161.335 33.6016 162.846 34.1908C164.562 34.8601 166.265 35.7852 167.321 37.2955C168.605 39.1322 168.729 41.6014 168.087 43.7491C167.696 45.0555 166.362 46.6514 165.377 47.7012Z" fill="#2F2E41"/>
<path d="M221.099 136.87H26.7661C26.6831 136.869 26.6037 136.836 26.5451 136.777C26.4865 136.719 26.4536 136.639 26.4536 136.556C26.4536 136.473 26.4865 136.393 26.5451 136.335C26.6037 136.276 26.6831 136.243 26.7661 136.242H221.099C221.182 136.243 221.261 136.276 221.32 136.335C221.378 136.393 221.411 136.473 221.411 136.556C221.411 136.639 221.378 136.719 221.32 136.777C221.261 136.836 221.182 136.869 221.099 136.87Z" fill="#3F3D56"/>
<path d="M123.449 108.122H89.2309C88.7803 108.125 88.3471 107.948 88.0263 107.631C87.7056 107.314 87.5235 106.883 87.52 106.432V30.0043C87.5235 29.5533 87.7056 29.1222 88.0263 28.8054C88.3471 28.4886 88.7803 28.3121 89.2309 28.3145H123.449C123.9 28.3121 124.333 28.4886 124.654 28.8054C124.975 29.1222 125.157 29.5533 125.16 30.0043V106.432C125.157 106.883 124.975 107.314 124.654 107.631C124.333 107.948 123.9 108.125 123.449 108.122Z" fill="white"/>
<path d="M125.16 53.0443H87.52V53.5711H125.16V53.0443Z" fill="#2092A5"/>
<path d="M125.292 83.1H87.6516V83.6268H125.292V83.1Z" fill="#2092A5"/>
<path d="M99.8914 28.3146H99.365V108.386H99.8914V28.3146Z" fill="#2092A5"/>
<path d="M113.052 28.3146H112.526V108.386H113.052V28.3146Z" fill="#2092A5"/>
</svg>
