<svg width="195" height="116" viewBox="0 0 195 116" fill="none" xmlns="http://www.w3.org/2000/svg">
<path d="M58 49H180" stroke="#DFDEDE" stroke-width="2"/>
<path d="M177 66C186.941 66 195 57.9411 195 48C195 38.0589 186.941 30 177 30C167.059 30 159 38.0589 159 48C159 57.9411 167.059 66 177 66Z" fill="#DFDEDE"/>
<path d="M178.95 47.4835C179.71 47.6755 180.28 48.0415 180.68 48.5815C181.09 49.1095 181.29 49.7695 181.29 50.5615C181.29 51.6535 180.89 52.5234 180.09 53.1714C179.28 53.8194 178.2 54.1435 176.83 54.1435C176.05 54.1435 175.3 54.0234 174.58 53.7834C173.86 53.5434 173.25 53.2075 172.74 52.7755C172.47 52.5355 172.33 52.2534 172.33 51.9294C172.33 51.6654 172.4 51.4435 172.54 51.2635C172.7 51.0715 172.88 50.9755 173.08 50.9755C173.2 50.9755 173.31 50.9995 173.41 51.0475C173.5 51.0835 173.64 51.1495 173.8 51.2455C174.31 51.5815 174.79 51.8395 175.24 52.0195C175.7 52.1995 176.2 52.2895 176.74 52.2895C177.53 52.2895 178.12 52.1335 178.5 51.8215C178.89 51.4975 179.08 51.0115 179.08 50.3635C179.08 49.7275 178.87 49.2595 178.47 48.9595C178.07 48.6475 177.45 48.4915 176.61 48.4915H175.59C175.31 48.4915 175.09 48.4015 174.94 48.2215C174.79 48.0295 174.72 47.8135 174.72 47.5735C174.72 47.3215 174.79 47.1055 174.94 46.9255C175.09 46.7455 175.31 46.6555 175.59 46.6555H176.31C177.95 46.6555 178.77 46.0375 178.77 44.8015C178.77 44.2255 178.6 43.7815 178.25 43.4695C177.9 43.1575 177.42 43.0015 176.81 43.0015C175.93 43.0015 175 43.3495 174 44.0455C173.83 44.1415 173.7 44.2135 173.61 44.2615C173.51 44.2975 173.4 44.3155 173.28 44.3155C173.08 44.3155 172.9 44.2255 172.74 44.0455C172.6 43.8535 172.53 43.6255 172.53 43.3615C172.53 43.1815 172.56 43.0314 172.62 42.9114C172.69 42.7794 172.8 42.6474 172.94 42.5154C173.44 42.0954 174.04 41.7655 174.74 41.5255C175.45 41.2735 176.17 41.1475 176.9 41.1475C178.15 41.1475 179.14 41.4535 179.87 42.0655C180.61 42.6775 180.99 43.4935 180.99 44.5135C180.97 45.2095 180.79 45.8215 180.43 46.3495C180.08 46.8655 179.59 47.2435 178.95 47.4835Z" fill="white"/>
<g filter="url(#filter0_d_58_1946)">
<path d="M58 66C67.9411 66 76 57.9411 76 48C76 38.0589 67.9411 30 58 30C48.0589 30 40 38.0589 40 48C40 57.9411 48.0589 66 58 66Z" fill="#0B4856"/>
</g>
<g filter="url(#filter1_d_58_1946)">
<path d="M61.6299 52.1277C62.3499 52.1277 62.7097 52.4337 62.7097 53.0457C62.7097 53.6817 62.3499 53.9997 61.6299 53.9997H55.5398C54.8098 53.9997 54.4397 53.6817 54.4397 53.0457C54.4397 52.4337 54.8098 52.1277 55.5398 52.1277H57.4099V43.9197L55.6897 44.9817C55.5197 45.0777 55.3697 45.1257 55.2397 45.1257C54.9797 45.1257 54.7698 45.0177 54.5898 44.8017C54.4198 44.5857 54.3398 44.3457 54.3398 44.0817C54.3398 43.7337 54.4898 43.4637 54.7998 43.2717L57.5898 41.5437C57.9498 41.3277 58.2999 41.2197 58.6199 41.2197C58.9599 41.2197 59.2299 41.3217 59.4299 41.5257C59.6299 41.7297 59.7397 42.0117 59.7397 42.3717V52.1277H61.6299Z" fill="white"/>
</g>
<path d="M118 66C127.941 66 136 57.9411 136 48C136 38.0589 127.941 30 118 30C108.059 30 100 38.0589 100 48C100 57.9411 108.059 66 118 66Z" fill="#0B4856"/>
<path d="M121.56 52.1274C122.28 52.1274 122.64 52.4335 122.64 53.0455C122.64 53.6815 122.28 53.9995 121.56 53.9995H114.72C114.41 53.9995 114.17 53.9095 113.99 53.7295C113.81 53.5375 113.72 53.3035 113.72 53.0275C113.72 52.6675 113.85 52.3435 114.13 52.0555L118.23 47.6454C118.74 47.0934 119.1 46.5895 119.33 46.1335C119.57 45.6655 119.69 45.2035 119.69 44.7475C119.69 44.1835 119.53 43.7515 119.21 43.4515C118.88 43.1515 118.42 43.0015 117.82 43.0015C117.33 43.0015 116.85 43.0975 116.38 43.2895C115.92 43.4695 115.46 43.7215 114.99 44.0455C114.87 44.1295 114.75 44.2015 114.63 44.2615C114.51 44.3095 114.39 44.3335 114.27 44.3335C114.07 44.3335 113.89 44.2375 113.73 44.0455C113.59 43.8535 113.52 43.6255 113.52 43.3615C113.52 43.1815 113.55 43.0255 113.61 42.8935C113.68 42.7615 113.79 42.6354 113.93 42.5154C114.46 42.0954 115.08 41.7655 115.79 41.5255C116.49 41.2735 117.2 41.1475 117.91 41.1475C119.15 41.1475 120.13 41.4595 120.86 42.0835C121.61 42.7075 121.98 43.5475 121.98 44.6035C121.98 45.3355 121.82 46.0255 121.51 46.6735C121.2 47.3095 120.67 48.0235 119.93 48.8155L116.81 52.1274H121.56Z" fill="white"/>
<defs>
<filter id="filter0_d_58_1946" x="0" y="0" width="116" height="116" filterUnits="userSpaceOnUse" color-interpolation-filters="sRGB">
<feFlood flood-opacity="0" result="BackgroundImageFix"/>
<feColorMatrix in="SourceAlpha" type="matrix" values="0 0 0 0 0 0 0 0 0 0 0 0 0 0 0 0 0 0 127 0" result="hardAlpha"/>
<feOffset dy="10"/>
<feGaussianBlur stdDeviation="20"/>
<feColorMatrix type="matrix" values="0 0 0 0 0.709804 0 0 0 0 0.494118 0 0 0 0 0.0627451 0 0 0 0.2 0"/>
<feBlend mode="normal" in2="BackgroundImageFix" result="effect1_dropShadow_58_1946"/>
<feBlend mode="normal" in="SourceGraphic" in2="effect1_dropShadow_58_1946" result="shape"/>
</filter>
<filter id="filter1_d_58_1946" x="52.3398" y="39.2197" width="12.3699" height="16.7798" filterUnits="userSpaceOnUse" color-interpolation-filters="sRGB">
<feFlood flood-opacity="0" result="BackgroundImageFix"/>
<feColorMatrix in="SourceAlpha" type="matrix" values="0 0 0 0 0 0 0 0 0 0 0 0 0 0 0 0 0 0 127 0" result="hardAlpha"/>
<feOffset/>
<feGaussianBlur stdDeviation="1"/>
<feColorMatrix type="matrix" values="0 0 0 0 0 0 0 0 0 0 0 0 0 0 0 0 0 0 0.25 0"/>
<feBlend mode="normal" in2="BackgroundImageFix" result="effect1_dropShadow_58_1946"/>
<feBlend mode="normal" in="SourceGraphic" in2="effect1_dropShadow_58_1946" result="shape"/>
</filter>
</defs>
</svg>
