<svg width="69" height="85" viewBox="0 0 69 85" fill="none" xmlns="http://www.w3.org/2000/svg">
<path d="M0.819092 67.1715V84.917H68.5336V67.1715C68.5309 65.1931 67.7069 63.2965 66.2424 61.8975C64.7778 60.4986 62.7922 59.7115 60.7209 59.709H8.63172C6.5605 59.7115 4.57487 60.4986 3.1103 61.8975C1.64572 63.2965 0.821755 65.1931 0.819092 67.1715H0.819092ZM6.02751 67.1715C6.02851 66.5121 6.3032 65.8799 6.79137 65.4136C7.27954 64.9473 7.94135 64.685 8.63172 64.684H11.2359V79.9456H6.02751V67.1715ZM16.4456 64.684H23.1801L34.6763 75.6651L46.1726 64.684H52.9033V79.9456H16.4456V64.684ZM63.3251 67.1715V79.942H58.1167V64.6804H60.7209C61.412 64.6814 62.0743 64.9443 62.5626 65.4113C63.0509 65.8784 63.3251 66.5115 63.3251 67.1715ZM38.8066 64.684L34.6763 68.6292L30.5461 64.684H38.8066Z" fill="#0B4856"/>
<path d="M54.1614 49.7538H58.1205V44.7787H60.7247C62.7959 44.7762 64.7816 43.9891 66.2461 42.5902C67.7107 41.1912 68.5347 39.2945 68.5374 37.3161V32.341C68.537 23.7633 64.9694 15.5371 58.6194 9.47197C52.2693 3.40685 43.657 -0.000318691 34.677 2.23578e-08C25.697 0.000318736 17.0849 3.4081 10.7353 9.47367C4.38573 15.5392 0.818758 23.7657 0.819092 32.3434L0.819092 37.3185C0.821755 39.2969 1.64572 41.1936 3.1103 42.5926C4.57487 43.9915 6.5605 44.7786 8.63172 44.7811H12.577C14.0254 48.6994 16.5872 52.1551 19.9754 54.7614C23.3636 57.3676 27.4445 59.0214 31.7611 59.5376C36.0776 60.0537 40.4594 59.4119 44.4156 57.6839C48.3719 55.956 51.7464 53.2101 54.1614 49.7538ZM60.7247 39.8024H57.9695C58.0665 38.9765 58.1152 38.146 58.1155 37.3149V32.3398C58.1152 31.5087 58.0665 30.6782 57.9695 29.8523H60.7197C61.4101 29.8532 62.0719 30.1156 62.56 30.5819C63.0482 31.0482 63.3229 31.6804 63.3239 32.3398V37.3149C63.3242 37.9752 63.0501 38.6086 62.5618 39.0759C62.0735 39.5432 61.4109 39.8063 60.7197 39.8072L60.7247 39.8024ZM34.6763 4.97808C40.9384 4.98578 47.0259 6.94965 52.0106 10.5702C56.9952 14.1907 60.6034 19.2691 62.2847 25.031C61.7701 24.9309 61.2462 24.8806 60.7209 24.8808H56.7744C55.1587 20.5156 52.166 16.7363 48.2083 14.0632C44.2507 11.3901 39.5228 9.95468 34.6757 9.95468C29.8286 9.95468 25.1007 11.3901 21.1431 14.0632C17.1854 16.7363 14.1927 20.5156 12.577 24.8808H8.63172C8.1065 24.8806 7.58259 24.9309 7.06794 25.031C8.74929 19.2691 12.3574 14.1907 17.3421 10.5702C22.3267 6.94965 28.4143 4.98578 34.6763 4.97808ZM49.6323 22.3981C47.9484 24.6959 45.7105 26.573 43.1074 27.871C40.5044 29.169 37.6127 29.8498 34.6763 29.8559H16.6318C17.1532 26.3971 18.7524 23.1682 21.2212 20.5894C23.69 18.0106 26.9142 16.2012 30.4743 15.3967C34.0344 14.5921 37.7656 14.8296 41.1824 16.0784C44.5993 17.3271 47.5436 19.5291 49.6323 22.3981ZM8.63172 39.8072C7.94135 39.8063 7.27954 39.5439 6.79137 39.0776C6.3032 38.6113 6.02851 37.9791 6.02751 37.3197V32.3446C6.02851 31.6852 6.3032 31.053 6.79137 30.5867C7.27954 30.1204 7.94135 29.858 8.63172 29.8571H11.3869C11.2899 30.683 11.2412 31.5135 11.241 32.3446V37.3197C11.2412 38.1508 11.2899 38.9813 11.3869 39.8072H8.63172ZM16.4444 37.3197V34.8322H34.6763C37.9741 34.8263 41.2337 34.1583 44.2437 32.8714C47.2537 31.5846 49.9469 29.7076 52.1484 27.3623C52.6546 28.9785 52.911 30.6565 52.9096 32.3434V37.3185C52.9124 39.9004 52.3106 42.4502 51.1483 44.7811H42.489L40.1968 42.5964C38.7314 43.9959 36.7441 44.7821 34.6719 44.7821C32.5998 44.7821 30.6125 43.9959 29.1471 42.5964L25.4647 46.1138C27.6811 48.2309 30.6226 49.5133 33.7491 49.7256C36.8757 49.938 39.9775 49.066 42.4852 47.2699V49.7538H47.4168C44.8538 52.1521 41.6065 53.7742 38.0822 54.4167C34.5578 55.0592 30.9134 54.6935 27.6057 53.3655C24.2981 52.0374 21.4746 49.8062 19.4893 46.9515C17.5039 44.0968 16.4451 40.7457 16.4456 37.3185L16.4444 37.3197Z" fill="#0B4856"/>
</svg>
