<svg width="70" height="76" viewBox="0 0 70 76" fill="none" xmlns="http://www.w3.org/2000/svg">
<path d="M56.1123 16.673L52.3381 21.3032C57.6879 25.2642 61.3747 30.9251 62.73 37.2596C64.0853 43.5942 63.0193 50.1829 59.7255 55.8312C56.4316 61.4794 51.1279 65.8133 44.7759 68.047C38.424 70.2807 31.4444 70.2663 25.1026 68.0065C18.7608 65.7466 13.4767 61.3909 10.2084 55.7291C6.94007 50.0673 5.90393 43.4742 7.28784 37.1453C8.67174 30.8165 12.3841 25.1708 17.7517 21.2319C23.1193 17.2931 29.7869 15.3218 36.5455 15.6756L31.2352 20.9968L35.1742 24.5875L43.5567 16.1755L47.3121 12.4082L43.3794 8.8319L34.5791 0.82373L30.8213 4.59108L36.553 9.80649C27.7615 9.42408 19.1505 12.2727 12.4896 17.7669C5.82874 23.2611 1.62396 30.9836 0.739361 39.3474C-0.145238 47.7112 2.35754 56.081 7.73336 62.7368C13.1092 69.3925 20.9497 73.8287 29.6437 75.1336C31.4377 75.4045 33.251 75.5407 35.0673 75.541C42.2374 75.524 49.2231 73.3696 55.0499 69.3783C60.8767 65.3872 65.2539 59.7582 67.571 53.2768C69.8881 46.7954 70.0294 39.7848 67.9752 33.223C65.9211 26.6612 61.7739 20.8755 56.1123 16.673Z" fill="#0B4856"/>
</svg>
