<svg width="25" height="25" viewBox="0 0 25 25" fill="none" xmlns="http://www.w3.org/2000/svg">
<path d="M12.5 13.5417C15.9375 13.5417 18.75 10.7292 18.75 7.29169C18.75 3.85419 15.9375 1.04169 12.5 1.04169C9.0625 1.04169 6.25 3.85419 6.25 7.29169C6.25 10.7292 9.0625 13.5417 12.5 13.5417ZM12.5 2.08335C15.3646 2.08335 17.7083 4.4271 17.7083 7.29169C17.7083 10.1563 15.3646 12.5 12.5 12.5C9.63542 12.5 7.29167 10.1563 7.29167 7.29169C7.29167 4.4271 9.63542 2.08335 12.5 2.08335Z" fill="#111111"/>
<path d="M17.1876 14.5834H7.81258C4.06258 14.5834 1.04175 17.6042 1.04175 21.3542V23.9584H2.08341V21.3542C2.08341 18.1771 4.6355 15.625 7.81258 15.625H17.1876C20.3647 15.625 22.9167 18.1771 22.9167 21.3542V23.9584H23.9584V21.3542C23.9584 17.6042 20.9376 14.5834 17.1876 14.5834Z" fill="#111111"/>
</svg>
